<svg xmlns="http://www.w3.org/2000/svg" xmlns:xlink="http://www.w3.org/1999/xlink" width="100%" height="100%" fill-rule="evenodd" stroke-linecap="round" stroke-linejoin="round" stroke-miterlimit="1.5" clip-rule="evenodd" version="1.1" viewBox="0 0 600 125" xml:space="preserve"><g><text x="374" y="472" font-family="'ArialMT', 'Arial', sans-serif" font-size="64" transform="matrix(0.469484,0,0,0.469925,-158.685,-184.211)">&lt;button</text><text x="607.094" y="472" fill="#df002d" font-family="'ArialMT', 'Arial', sans-serif" font-size="64" transform="matrix(0.469484,0,0,0.469925,-158.685,-184.211)">(click)</text><text x="774.156" y="472" font-family="'ArialMT', 'Arial', sans-serif" font-size="64" transform="matrix(0.469484,0,0,0.469925,-158.685,-184.211)">=&quot;</text><text x="834.25" y="472" fill="#0022be" font-family="'ArialMT', 'Arial', sans-serif" font-size="64" transform="matrix(0.469484,0,0,0.469925,-158.685,-184.211)">onSave()</text><text x="1093.94" y="472" font-family="'ArialMT', 'Arial', sans-serif" font-size="64" transform="matrix(0.469484,0,0,0.469925,-158.685,-184.211)">&quot;&gt;Save&lt;/button&gt;</text></g><path fill="#df002d" d="M142.827,95.824l-6.663,-3.032l17.828,-39.26l-6.187,-2.815l13.842,-5.191l5.195,13.852l-6.187,-2.815l-17.828,39.261Z"/><path fill="#3345cc" d="M337.08,93.548l-6.915,2.399l-13.342,-38.531l-6.422,2.228l6.458,-13.308l13.3,6.453l-6.421,2.228l13.342,38.531Z"/><g><rect width="197.653" height="31.485" x="23.005" y="76.128" fill="#fff" stroke="#000" stroke-width=".7"/><text x="31.989" y="98.214" fill="#df002d" font-family="'ArialMT', 'Arial', sans-serif" font-size="22.556">target even<tspan x="144.743" y="98.214">t</tspan> name</text></g><g><rect width="228.169" height="31.955" x="275.117" y="76.128" fill="#fff" stroke="#000" stroke-width=".7"/><text x="293.078" y="98.214" fill="#3345cc" font-family="'ArialMT', 'Arial', sans-serif" font-size="22.556">template st<tspan x="403.3" y="98.214">a</tspan>tement</text></g></svg>